
<global>
ampeg_attack=0.002
ampeg_release=0.3
loop_mode=loop_continuous
</global>

<group>
group_label=Group

<region>
hikey=B2
hivel=127
lokey=A#2
loop_end=177608
loop_start=20825
loop_xfade=10000
lovel=0
offset=779
pitch_keycenter=A#2
release_start=185014
sample=Lespaul_Rhythm_Tremolo_MP_A#2.opus
volume=-1.40
</region>

<region>
hikey=B3
hivel=127
lokey=A#3
loop_end=175383
loop_start=17883
loop_xfade=10000
lovel=0
offset=1369
pitch_keycenter=A#3
release_start=187219
sample=Lespaul_Rhythm_Tremolo_MP_A#3.opus
volume=-0.52
</region>

<region>
hikey=B4
hivel=127
lokey=A#4
loop_end=175323
loop_start=34397
loop_xfade=10000
lovel=0
offset=4525
pitch_keycenter=A#4
release_start=191466
sample=Lespaul_Rhythm_Tremolo_MP_A#4.opus
volume=-2.65
</region>

<region>
hikey=B5
hivel=127
lokey=A#5
loop_end=138785
loop_start=31918
loop_xfade=10000
lovel=0
offset=1365
pitch_keycenter=A#5
release_start=192052
sample=Lespaul_Rhythm_Tremolo_MP_A#5.opus
volume=-0.35
</region>

<region>
hikey=C#3
hivel=127
lokey=C3
loop_end=172119
loop_start=26837
loop_xfade=10000
lovel=0
offset=2920
pitch_keycenter=C3
release_start=188396
sample=Lespaul_Rhythm_Tremolo_MP_C3.opus
volume=-0.30
</region>

<region>
hikey=C#4
hivel=127
lokey=C4
loop_end=181985
loop_start=28990
loop_xfade=10000
lovel=0
offset=1981
release_start=193256
sample=Lespaul_Rhythm_Tremolo_MP_C4.opus
volume=+0.88
</region>

<region>
hikey=C#5
hivel=127
lokey=C5
loop_end=161623
loop_start=32006
loop_xfade=10000
lovel=0
offset=727
pitch_keycenter=C5
release_start=187682
sample=Lespaul_Rhythm_Tremolo_MP_C5.opus
volume=+2.26
</region>

<region>
hikey=C#6
hivel=127
lokey=C6
loop_end=173613
loop_start=31635
loop_xfade=10000
lovel=0
offset=1648
pitch_keycenter=C6
release_start=195804
sample=Lespaul_Rhythm_Tremolo_MP_C6.opus
volume=+0.45
</region>

<region>
hikey=D#2
hivel=127
lokey=C2
loop_end=190778
loop_start=30586
loop_xfade=10000
lovel=0
offset=543
pitch_keycenter=D2
sample=Lespaul_Rhythm_Tremolo_MP_D2.opus
volume=-0.42
</region>

<region>
hikey=D#3
hivel=127
lokey=D3
loop_end=173689
loop_start=67759
loop_xfade=10000
lovel=0
offset=1240
pitch_keycenter=D3
release_start=187639
sample=Lespaul_Rhythm_Tremolo_MP_D3.opus
volume=-0.68
</region>

<region>
hikey=D#4
hivel=127
lokey=D4
loop_end=160159
loop_start=25106
loop_xfade=10000
lovel=0
offset=1663
pitch_keycenter=D4
release_start=188142
sample=Lespaul_Rhythm_Tremolo_MP_D4.opus
volume=+2.29
</region>

<region>
hikey=D#5
hivel=127
lokey=D5
loop_end=179877
loop_start=57890
loop_xfade=10000
lovel=0
offset=1587
pitch_keycenter=D5
release_start=190643
sample=Lespaul_Rhythm_Tremolo_MP_D5.opus
volume=+1.11
</region>

<region>
hikey=F2
hivel=127
lokey=E2
loop_end=170306
loop_start=38275
loop_xfade=10000
lovel=0
offset=1371
pitch_keycenter=E2
release_start=176081
sample=Lespaul_Rhythm_Tremolo_MP_E2.opus
volume=-1.53
</region>

<region>
hikey=F3
hivel=127
lokey=E3
loop_end=176837
loop_start=49369
loop_xfade=10000
lovel=0
offset=3459
pitch_keycenter=E3
release_start=187101
release_xfade=3462
sample=Lespaul_Rhythm_Tremolo_MP_E3.opus
volume=+0.52
</region>

<region>
hikey=F4
hivel=127
lokey=E4
loop_end=175463
loop_start=37616
loop_xfade=10000
lovel=0
offset=1422
pitch_keycenter=E4
release_start=187346
sample=Lespaul_Rhythm_Tremolo_MP_E4.opus
volume=+2.14
</region>

<region>
end=193663
hikey=F5
hivel=127
lokey=E5
loop_end=168622
loop_start=46960
loop_xfade=10000
lovel=0
offset=1525
pitch_keycenter=E5
release_start=182225
sample=Lespaul_Rhythm_Tremolo_MP_E5.opus
volume=-1.75
</region>

<region>
hikey=G2
hivel=127
lokey=F#2
loop_end=183316
loop_start=23488
loop_xfade=10000
lovel=0
offset=1312
pitch_keycenter=F#2
release_start=183792
sample=Lespaul_Rhythm_Tremolo_MP_F#2.opus
volume=-0.39
</region>

<region>
hikey=G3
hivel=127
lokey=F#3
loop_end=167687
loop_start=52198
loop_xfade=10000
lovel=0
offset=1364
pitch_keycenter=F#3
release_start=189408
sample=Lespaul_Rhythm_Tremolo_MP_F#3.opus
volume=+0.61
</region>

<region>
hikey=G4
hivel=127
lokey=F#4
loop_end=165311
loop_start=21010
loop_xfade=10000
lovel=0
offset=1274
pitch_keycenter=F#4
release_start=188007
sample=Lespaul_Rhythm_Tremolo_MP_F#4.opus
volume=-1.39
</region>

<region>
hikey=G5
hivel=127
lokey=F#5
loop_end=165551
loop_start=31441
loop_xfade=10000
lovel=0
offset=1007
pitch_keycenter=F#5
release_start=191670
sample=Lespaul_Rhythm_Tremolo_MP_F#5.opus
volume=+2.69
</region>

<region>
hikey=A2
hivel=127
lokey=G#2
loop_end=172738
loop_start=31583
loop_xfade=10000
lovel=0
offset=2536
pitch_keycenter=G#2
release_start=180803
sample=Lespaul_Rhythm_Tremolo_MP_G#2.opus
volume=-3.76
</region>

<region>
hikey=A3
hivel=127
lokey=G#3
loop_end=165139
loop_start=24963
loop_xfade=10000
lovel=0
offset=1958
pitch_keycenter=G#3
release_start=184311
sample=Lespaul_Rhythm_Tremolo_MP_G#3.opus
volume=+0.08
</region>

<region>
hikey=A4
hivel=127
lokey=G#4
loop_end=177228
loop_start=32717
loop_xfade=10000
lovel=0
offset=1449
pitch_keycenter=G#4
release_start=188194
sample=Lespaul_Rhythm_Tremolo_MP_G#4.opus
volume=+4.52
</region>

<region>
hikey=A5
hivel=127
lokey=G#5
loop_end=183406
loop_start=46685
loop_xfade=10000
lovel=0
offset=1634
pitch_keycenter=G#5
release_start=187322
sample=Lespaul_Rhythm_Tremolo_MP_G#5.opus
volume=+1.19
</region>
</group>